<svg xmlns="http://www.w3.org/2000/svg" viewBox="0 0 2673 2681">
  <switch>
    <g>
      <g fill="none">
        <circle cx="1297.29" cy="1309.67" r="1109.96"/>
        <path stroke="#000" stroke-width="2" stroke-miterlimit="10" d="M2471.29 860.1l29.87 86.48-26.32 9.09-20.45-59.22-31.4 10.84 17.73 51.33-26.32 9.09-17.72-51.33-54.33 18.76-9.42-27.26 138.36-47.78zM2457.97 1017.42l-22.53 8.3 3.33-1.45c5.63 1.19 10.74 3.46 15.34 6.83 4.6 3.36 8.39 6.89 11.36 10.59 2.97 3.7 4.74 6.64 5.28 8.83l-27.35 5.4c-.8-6.5-3.19-11.64-7.14-15.44-3.96-3.8-8.56-6.34-13.8-7.62-5.24-1.29-10.31-1.32-15.19-.1l-33 8.25-6.71-26.82 84.32-21.09 6.09 24.32zM2428.35 1072.95c8.76-1.45 16.95-.68 24.57 2.29 7.61 2.98 14.03 7.86 19.25 14.66 5.22 6.8 8.63 15.04 10.23 24.72 1.62 9.81 1.03 18.64-1.77 26.5-2.8 7.85-7.35 14.28-13.65 19.29-6.3 5-13.83 8.23-22.59 9.68-8.77 1.45-16.97.82-24.6-1.88-7.64-2.7-14.08-7.32-19.32-13.84-5.24-6.53-8.7-14.83-10.36-24.9-1.56-9.42-1.11-18.13 1.33-26.13 2.44-8 6.78-14.66 13.03-19.99 6.24-5.34 14.2-8.8 23.88-10.4zm4.38 27.7c-4.45.73-8.32 2.31-11.62 4.74-3.3 2.42-5.73 5.38-7.3 8.87-1.58 3.49-2.04 7.19-1.39 11.12.71 4.32 2.38 7.87 4.99 10.67 2.61 2.79 5.85 4.74 9.74 5.85 3.88 1.11 8.04 1.29 12.49.56 4.58-.76 8.49-2.28 11.75-4.56 3.25-2.29 5.66-5.17 7.24-8.66 1.57-3.49 2-7.39 1.29-11.7-.65-3.92-2.28-7.28-4.89-10.08-2.61-2.79-5.83-4.82-9.67-6.06-3.85-1.26-8.06-1.5-12.63-.75zM2490.65 1215.55l-15.35 3.16 1.36-.48c5.62 2.7 10.29 6.72 14.01 12.07 3.73 5.34 5.84 12.05 6.35 20.13.52 8.2-1.47 15.21-5.95 21-4.49 5.79-10.56 9-18.23 9.62l-64.91 4.09-1.75-27.79 54.59-3.44c3.83-.38 6.84-1.6 9.04-3.66 2.19-2.07 3.15-5.35 2.87-9.85-.27-4.24-1.89-7.85-4.87-10.85-2.98-3-6.91-5.21-11.78-6.63-4.87-1.42-10.42-1.93-16.64-1.54l-35.33 2.23-1.75-27.79 86.75-5.47 1.59 25.2zM2532.51 1321.92l-.63 27.84-37.78-.86-.48 21.08-21.67-.49.48-21.08-65.62-1.49.63-27.84 65.62 1.49.3-13.52 21.68.49-.31 13.52 37.78.86zM2462.59 1388.42l-3.12 37.26-24.18-2.02 3.12-37.26 24.18 2.02zM2400.16 1449.38l144.1 25.82-7.72 43.07c-2.6 14.49-6.96 26.44-13.09 35.85s-13.34 16.57-21.63 21.48-17.13 8.01-26.52 9.29c-9.39 1.28-18.59 1.12-27.59-.5-10.7-1.92-19.99-5.57-27.84-10.95-7.86-5.38-14.23-11.95-19.1-19.69-4.88-7.74-8.13-16.28-9.76-25.59-1.63-9.32-1.57-18.87.18-28.66l8.97-50.12zm22.32 33.3l-3.02 16.84c-1.29 7.18-1.51 13.87-.67 20.09.84 6.21 2.71 11.77 5.6 16.66 2.89 4.89 6.91 8.98 12.05 12.26 5.14 3.28 11.29 5.56 18.47 6.85 9.4 1.68 17.34 1.52 23.83-.48 6.49-2 11.77-4.96 15.84-8.88 4.07-3.92 7.14-8.12 9.23-12.59 2.08-4.48 3.42-8.35 4-11.61l4.14-23.1-89.47-16.04zM2357.33 1631.73c3.07-10.16 7.57-18.18 13.5-24.08 5.93-5.9 12.82-9.67 20.66-11.32 7.84-1.65 16.14-1.15 24.9 1.49 8.38 2.53 15.28 6.97 20.71 13.31 5.42 6.34 9.04 13.74 10.86 22.19 1.82 8.44 1.38 17.11-1.3 25.99-3.6 11.93-10.02 20.69-19.26 26.29-9.24 5.59-20.74 7.56-34.5 5.9l-1.02-70.95 16.25-1.54 1.67 51.61-.81-6.27c3.61-.02 7.04-.96 10.3-2.81 3.26-1.86 5.68-5.39 7.25-10.59 1.19-3.94 1.31-7.68.37-11.21-.94-3.54-2.85-6.61-5.74-9.21-2.88-2.6-6.61-4.59-11.18-5.97-5.21-1.57-9.84-1.93-13.91-1.08-4.07.85-7.49 2.66-10.26 5.42-2.77 2.76-4.77 6.18-6 10.24-.88 2.92-1.23 5.89-1.03 8.93.19 3.03.71 6.14 1.56 9.3l-23.37 5.83c-1.2-5.21-1.78-10.61-1.75-16.22.01-5.59.72-10.68 2.1-15.25zM2324.6 1725.92l101.79-15-12.4 30.6-66.8 4.92 6.97-15.63 45.49 46.11-11.65 28.76-63.7-79.02.3-.74zM2280.95 1819.06c4.87-9.42 10.76-16.49 17.68-21.2 6.91-4.71 14.37-7.16 22.38-7.35 8.01-.19 16.08 1.82 24.21 6.02 7.77 4.02 13.75 9.64 17.92 16.88 4.17 7.23 6.38 15.16 6.62 23.8.24 8.63-1.77 17.07-6.04 25.32-5.72 11.07-13.64 18.51-23.74 22.32-10.1 3.81-21.77 3.63-35-.52l11.98-69.94 16.26 1.47-7.81 51.05.35-6.31c3.55.64 7.1.35 10.64-.88 3.55-1.23 6.57-4.26 9.06-9.08 1.89-3.65 2.69-7.31 2.42-10.95-.28-3.65-1.6-7.02-3.96-10.11s-5.66-5.73-9.9-7.92c-4.83-2.5-9.32-3.7-13.47-3.61-4.15.09-7.84 1.24-11.08 3.45-3.23 2.21-5.82 5.2-7.77 8.97-1.4 2.71-2.29 5.57-2.65 8.59-.37 3.02-.43 6.16-.17 9.43l-24.04 1.45c-.23-5.34.19-10.76 1.24-16.26 1.05-5.51 2.68-10.38 4.87-14.62zM2385.43 1958.77l-14.55 23.74-133.81-82 14.55-23.74 133.81 82zM2263.64 1942.07c7.29 5.08 12.63 11.34 16.01 18.78 3.38 7.44 4.57 15.42 3.57 23.94-1 8.51-4.3 16.8-9.91 24.85-5.68 8.16-12.27 14.08-19.75 17.75-7.49 3.67-15.23 5.11-23.23 4.3-8-.81-15.65-3.75-22.94-8.82-7.29-5.08-12.73-11.25-16.32-18.51-3.59-7.27-4.98-15.07-4.19-23.4.8-8.33 4.11-16.69 9.94-25.07 5.46-7.83 11.85-13.77 19.18-17.79 7.33-4.03 15.09-5.77 23.28-5.24 8.18.53 16.3 3.6 24.36 9.21zm-16.19 22.9c-3.7-2.58-7.58-4.15-11.63-4.71-4.05-.56-7.86-.14-11.42 1.26-3.56 1.4-6.48 3.73-8.75 7-2.5 3.59-3.79 7.3-3.87 11.12-.08 3.82.89 7.48 2.9 10.98s4.86 6.54 8.56 9.11c3.81 2.65 7.68 4.29 11.6 4.93 3.92.63 7.67.25 11.23-1.15 3.56-1.4 6.59-3.89 9.09-7.49 2.27-3.26 3.45-6.81 3.53-10.63.08-3.83-.82-7.52-2.7-11.09-1.89-3.57-4.74-6.68-8.54-9.33zM2120.4 2050.94c3.43-3.87 7.52-7.02 12.26-9.47 4.74-2.44 9.55-3.72 14.43-3.82l5.57 6.01-43.89-38.95 18.35-20.68 97.74 86.74-15.84 17.85-15.29-8.25 5.92 2.32c-.12 5.92-1.08 11.81-2.89 17.64-1.81 5.84-5.14 11.48-9.98 16.94-5.37 6.05-11.58 10.2-18.63 12.45-7.05 2.25-14.44 2.38-22.17.41-7.73-1.98-15.31-6.27-22.75-12.87-7.34-6.51-12.22-13.6-14.65-21.25-2.43-7.65-2.61-15.34-.53-23.08s6.19-15.05 12.35-21.99zm20.06 10.36c-2.99 3.37-5 7.13-6.02 11.28-1.02 4.15-.94 8.3.25 12.46 1.19 4.15 3.51 7.77 6.99 10.85 3.67 3.25 7.55 5.32 11.64 6.21 4.09.88 8.07.69 11.94-.57 3.87-1.27 7.21-3.48 10.03-6.66 2.46-2.78 4.27-5.56 5.42-8.36 1.15-2.79 1.73-5.65 1.74-8.56.01-2.91-.54-5.93-1.67-9.06l-15.92-14.13a22.118 22.118 0 00-8.54-1.46c-2.91.08-5.73.81-8.46 2.2-2.73 1.38-5.2 3.32-7.4 5.8zM2043.92 2128.07c7.82-7.17 15.78-11.78 23.89-13.83s15.96-1.78 23.55.8c7.58 2.58 14.47 7.24 20.66 13.98 5.92 6.45 9.59 13.78 11.02 22.01 1.43 8.22.77 16.43-1.97 24.62-2.74 8.19-7.54 15.42-14.38 21.7-9.18 8.43-19.17 12.69-29.97 12.79-10.8.1-21.69-4.08-32.69-12.53l35.3-61.55 14.76 6.97-24.89 45.25 2.5-5.81c3.11 1.82 6.54 2.77 10.3 2.83 3.75.07 7.63-1.74 11.63-5.41 3.03-2.78 5.04-5.93 6.04-9.45 1-3.52.92-7.14-.24-10.85-1.15-3.71-3.35-7.32-6.57-10.84-3.68-4.01-7.48-6.68-11.41-8.02-3.93-1.34-7.79-1.53-11.59-.57-3.79.96-7.25 2.88-10.38 5.75a25.239 25.239 0 00-5.45 7.16 47.47 47.47 0 00-3.4 8.79l-23.07-6.9c1.63-5.09 3.88-10.04 6.76-14.84 2.88-4.8 6.08-8.82 9.6-12.05zM2030.32 2256.19l-16.65-17.3 2.66 2.47c1.17 5.63 1.14 11.23-.09 16.79-1.23 5.56-2.94 10.45-5.14 14.66-2.19 4.21-4.18 7-5.96 8.38l-15.93-22.88c5.63-3.35 9.38-7.59 11.27-12.74 1.89-5.15 2.37-10.38 1.44-15.7-.93-5.32-2.93-9.97-6.01-13.96l-20.8-26.91 21.87-16.91 53.17 68.76-19.83 15.34zM1951.14 2377.77l-21.51 12.85-97.02-162.38 21.51-12.85 97.02 162.38zM1674.68 2368.18c.96-1.84 3-4.62 6.11-8.36 3.11-3.74 7.21-7.6 12.31-11.58 5.09-3.99 11.15-7.37 18.18-10.15 10.75-4.19 21.08-6.22 30.96-6.1 9.89.12 19.04 2.09 27.46 5.92 8.41 3.82 15.83 9.14 22.25 15.94 6.42 6.8 11.54 14.8 15.37 23.98 4.28 10.28 6.64 20.36 7.09 30.23.44 9.87-.94 19.13-4.16 27.8-3.21 8.66-8.15 16.39-14.8 23.18-6.65 6.79-14.88 12.22-24.67 16.3-9.06 3.77-17.59 5.88-25.59 6.34-8 .45-14.79.19-20.36-.79v-29.51c4.03 1.05 9.11 1.77 15.23 2.17 6.13.39 12.49-.78 19.1-3.54 5.14-2.14 9.62-5.26 13.44-9.37 3.82-4.11 6.72-8.87 8.7-14.29 1.98-5.42 2.93-11.17 2.84-17.24-.08-6.07-1.4-12.17-3.95-18.28-2.7-6.49-6.12-12.03-10.26-16.63s-8.78-8.08-13.94-10.46c-5.15-2.38-10.65-3.58-16.47-3.59-5.82-.02-11.86 1.27-18.1 3.87-7.22 3.01-12.92 6.74-17.09 11.21-4.17 4.46-7.07 8.54-8.7 12.24l-20.95-19.29zM1669.24 2403.83c2.49 8.53 2.72 16.75.68 24.67-2.04 7.92-6.12 14.88-12.24 20.88-6.12 6-13.89 10.38-23.31 13.13-9.54 2.79-18.38 3.27-26.52 1.43-8.13-1.84-15.07-5.58-20.79-11.22-5.73-5.65-9.84-12.74-12.33-21.26-2.49-8.53-2.86-16.75-1.09-24.65 1.76-7.91 5.57-14.86 11.42-20.85 5.85-5.99 13.67-10.42 23.47-13.29 9.16-2.68 17.87-3.29 26.1-1.83s15.37 4.97 21.42 10.52c6.04 5.56 10.44 13.05 13.19 22.47zm-26.97 7.68c-1.26-4.33-3.3-7.98-6.1-10.96-2.8-2.98-6.03-5.04-9.68-6.18-3.65-1.14-7.38-1.16-11.2-.04-4.2 1.23-7.53 3.3-9.99 6.24-2.46 2.93-4 6.38-4.64 10.37-.63 3.98-.31 8.14.95 12.47 1.3 4.45 3.28 8.16 5.94 11.11 2.66 2.95 5.81 5 9.46 6.14 3.65 1.14 7.58 1.1 11.78-.13 3.82-1.12 6.96-3.14 9.42-6.07s4.08-6.37 4.85-10.33c.78-3.96.51-8.17-.79-12.62zM1507.79 2397.11c7.96-1.46 15.46-1.19 22.5.82 7.04 2.01 13.07 5.99 18.07 11.95 5.01 5.96 8.46 14.08 10.35 24.39 1.78 9.65 1.36 18.36-1.26 26.12-2.62 7.76-6.76 14.15-12.45 19.18-5.68 5.02-12.11 8.19-19.28 9.51-8.48 1.56-15.16 1.34-20.04-.66-4.88-2-9.07-4.43-12.57-7.29l.56-3.54-.24 12.99-25.43 4.68-15.73-85.49 27.39-5.04 3.42 18.58-3.23-5.47c.26-.05.91-.94 1.93-2.68 1.03-1.74 2.63-3.85 4.8-6.34 2.17-2.49 4.98-4.83 8.42-7.01 3.44-2.2 7.7-3.76 12.79-4.7zm-3.73 23.74c-3.26.6-6.1 1.63-8.53 3.09-2.43 1.46-4.45 3.31-6.05 5.56-1.61 2.25-2.86 4.94-3.77 8.08l3.85 20.93c1.57 2.67 3.59 4.83 6.04 6.47 2.46 1.64 5.23 2.75 8.3 3.33 3.07.58 6.37.55 9.89-.1 3.91-.72 7.34-2.4 10.3-5.03 2.95-2.64 5.09-5.89 6.39-9.77 1.31-3.88 1.54-8.1.7-12.67-.84-4.57-2.64-8.48-5.4-11.75-2.76-3.27-6.06-5.63-9.9-7.08-3.83-1.45-7.77-1.8-11.82-1.06zM1391.9 2413.29c8.07-.6 15.41.74 22.04 4.03 6.63 3.29 12.03 8.37 16.2 15.24 4.17 6.87 6.63 15.19 7.36 24.98.73 9.78-.63 18.26-4.08 25.44-3.45 7.17-8.48 12.8-15.09 16.89-6.61 4.09-14.28 6.46-23 7.11-5.55.42-10.94-.05-16.16-1.38-5.22-1.34-9.68-3.66-13.39-6.97l-.65-8.73 6.36 84.69-27.57 2.07-11.74-156.49 27.77-2.08 1.26 16.86-2.63-5.79c4.22-4.04 9.01-7.56 14.37-10.55 5.36-3 11.68-4.77 18.95-5.32zm-7.36 24.09c-3.7.28-6.93 1.02-9.71 2.22-2.77 1.2-5.17 2.85-7.21 4.93-2.04 2.08-3.74 4.63-5.11 7.66l1.59 21.22c1.28 2.83 3.08 5.18 5.42 7.07 2.34 1.88 5.1 3.27 8.29 4.17 3.19.89 6.64 1.2 10.34.92 4.1-.31 7.83-1.62 11.17-3.93 3.35-2.32 5.95-5.33 7.8-9.06 1.85-3.73 2.6-7.91 2.25-12.54-.35-4.63-1.72-8.72-4.11-12.26-2.39-3.54-5.42-6.24-9.08-8.1-3.66-1.84-7.54-2.61-11.64-2.3zM1264.24 2416.87c10.61.29 19.53 2.52 26.78 6.69 7.25 4.18 12.7 9.83 16.35 16.96 3.66 7.13 5.36 15.27 5.11 24.41-.24 8.75-2.7 16.57-7.4 23.48-4.69 6.9-10.88 12.34-18.55 16.31-7.67 3.97-16.14 5.83-25.42 5.58-12.46-.34-22.6-4.23-30.43-11.67-7.82-7.44-12.74-18.02-14.76-31.74l68.18-19.64 5.75 15.28-49.36 15.18 5.84-2.43c.97 3.47 2.78 6.54 5.42 9.2 2.65 2.66 6.69 4.06 12.12 4.21 4.11.11 7.75-.75 10.91-2.59 3.17-1.84 5.63-4.49 7.38-7.96 1.75-3.47 2.69-7.59 2.82-12.36.15-5.44-.72-10-2.61-13.7-1.89-3.7-4.53-6.52-7.93-8.47-3.4-1.95-7.21-2.98-11.46-3.1-3.05-.08-6.01.37-8.89 1.35-2.88.98-5.73 2.3-8.56 3.95l-11.77-21.01c4.71-2.53 9.77-4.51 15.18-5.96 5.44-1.44 10.53-2.1 15.3-1.97zM1165.33 2499.46l.07-24.01.2 3.62c-3.07 4.86-6.99 8.86-11.74 12-4.75 3.14-9.38 5.46-13.88 6.96s-7.87 2.13-10.12 1.88l4.46-27.52c6.37 1.51 12.02 1.07 16.96-1.32 4.94-2.39 8.92-5.81 11.95-10.28 3.03-4.47 4.83-9.2 5.38-14.21l3.76-33.8 27.48 3.06-9.61 86.39-24.91-2.77zM1023.96 2531.82l-24.4-5.71 43.12-184.17 24.4 5.71-43.12 184.17zM885.54 2497.8l-26.89-10.43 42.85-110.53-64.17-24.88L847.4 2326l91.06 35.31-52.92 136.49zM790.8 2294.83c9.44 4.85 16.52 10.72 21.25 17.62s7.2 14.35 7.41 22.36c.21 8.01-1.77 16.08-5.95 24.22-4 7.79-9.6 13.77-16.82 17.97-7.22 4.19-15.15 6.42-23.78 6.69-8.63.27-17.08-1.72-25.33-5.96-11.09-5.69-18.55-13.58-22.39-23.68-3.83-10.09-3.7-21.76.41-35l69.97 11.77-1.42 16.26-51.07-7.66 6.31.33c-.63 3.55-.33 7.1.91 10.64 1.24 3.54 4.28 6.55 9.11 9.04 3.66 1.88 7.31 2.67 10.96 2.38 3.65-.29 7.02-1.62 10.09-3.99 3.08-2.37 5.71-5.68 7.89-9.92 2.48-4.84 3.67-9.33 3.57-13.48-.1-4.15-1.26-7.84-3.49-11.07-2.22-3.23-5.21-5.81-8.99-7.74a25.265 25.265 0 00-8.6-2.63c-3.02-.36-6.16-.41-9.43-.14l-1.52-24.03c5.34-.24 10.76.16 16.27 1.2 5.52 1.03 10.4 2.64 14.64 4.82zM703.96 2245.01c6.79 4.4 12.05 9.75 15.79 16.05 3.74 6.3 5.38 13.33 4.93 21.09-.45 7.77-3.53 16.04-9.23 24.83-5.34 8.23-11.63 14.27-18.86 18.12s-14.64 5.64-22.22 5.39c-7.58-.25-14.43-2.36-20.55-6.33-7.23-4.69-11.93-9.44-14.11-14.25-2.17-4.81-3.55-9.45-4.12-13.93l2.84-2.19-9.09 9.27-21.7-14.07 47.29-72.93 23.36 15.15-10.28 15.85 1.41-6.2c.22.15 1.31-.06 3.25-.62s4.56-1 7.85-1.31c3.29-.32 6.93-.09 10.93.69s8.17 2.58 12.51 5.39zm-19.01 14.7c-2.78-1.8-5.55-3.01-8.32-3.62-2.77-.61-5.51-.65-8.22-.12-2.71.53-5.47 1.62-8.29 3.28l-11.58 17.86c-.69 3.02-.71 5.97-.05 8.86.66 2.88 1.91 5.58 3.75 8.12 1.84 2.53 4.25 4.77 7.26 6.72 3.34 2.16 6.99 3.3 10.94 3.42 3.96.11 7.74-.79 11.36-2.71 3.62-1.92 6.69-4.83 9.21-8.72 2.53-3.9 3.91-7.98 4.15-12.25.24-4.27-.54-8.25-2.33-11.94-1.81-3.7-4.43-6.66-7.88-8.9zM561.26 2253.51l12.65-20.4-1.73 3.19c-5.17 2.53-10.6 3.88-16.29 4.06-5.69.18-10.85-.27-15.47-1.35-4.62-1.08-7.82-2.32-9.6-3.71l18.23-21.09c4.63 4.63 9.68 7.22 15.13 7.77 5.45.56 10.64-.27 15.56-2.48s8.94-5.3 12.04-9.28l20.93-26.81 21.79 17.01-53.49 68.51-19.75-15.42zM494.97 2198.17l8.97-12.85-.66 1.29c-5.93 1.9-12.09 2.19-18.47.87-6.38-1.32-12.53-4.73-18.45-10.25-6.02-5.6-9.39-12.05-10.12-19.34-.73-7.29 1.48-13.8 6.62-19.52l44.31-47.61 20.38 18.97-37.27 40.04c-2.52 2.91-3.87 5.86-4.05 8.87-.17 3.01 1.39 6.05 4.69 9.12 3.11 2.89 6.77 4.4 11 4.53 4.23.13 8.6-.96 13.11-3.28s8.89-5.76 13.14-10.32l24.12-25.91 20.38 18.97-59.22 63.62-18.48-17.2zM463.23 2038.8c7.01 7.97 11.44 16.03 13.31 24.18 1.87 8.15 1.44 15.99-1.3 23.52-2.74 7.53-7.54 14.31-14.42 20.35-6.57 5.78-13.98 9.29-22.24 10.55-8.25 1.26-16.45.42-24.57-2.5-8.13-2.92-15.26-7.86-21.38-14.84-8.23-9.36-12.28-19.44-12.15-30.24.13-10.8 4.54-21.6 13.22-32.41l60.78 36.61-7.28 14.61-44.7-25.85 5.75 2.62c-1.89 3.07-2.91 6.49-3.05 10.23-.15 3.75 1.58 7.67 5.16 11.75 2.72 3.09 5.82 5.17 9.32 6.24 3.5 1.07 7.12 1.07 10.85-.01 3.74-1.08 7.39-3.19 10.98-6.34 4.08-3.59 6.84-7.34 8.26-11.24 1.43-3.9 1.7-7.76.82-11.57-.88-3.82-2.72-7.31-5.53-10.5a25.126 25.126 0 00-7.04-5.6c-2.68-1.44-5.58-2.64-8.72-3.59l7.39-22.92c5.06 1.73 9.95 4.09 14.7 7.08 4.74 3 8.69 6.28 11.84 9.87zM335.42 2022.46l17.65-16.27-2.52 2.61c-5.65 1.05-11.25.9-16.78-.45-5.53-1.35-10.38-3.17-14.54-5.45-4.16-2.28-6.91-4.33-8.25-6.14l23.22-15.44c3.22 5.7 7.39 9.54 12.49 11.54 5.11 2 10.33 2.59 15.66 1.78 5.34-.81 10.03-2.72 14.08-5.71l27.35-20.22 16.44 22.23-69.88 51.69-14.92-20.17zM215.58 1940.71l-12.39-21.78 164.41-93.53 12.39 21.78-164.41 93.53zM146.76 1816.44l-34.08-84.91 25.84-10.37 23.33 58.15 30.83-12.37-20.22-50.39 25.84-10.37 20.22 50.39 53.35-21.41 10.74 26.77-135.85 54.51zM152.36 1658.68l22.09-9.39-3.25 1.61c-5.68-.91-10.9-2.94-15.66-6.07-4.76-3.13-8.71-6.47-11.87-10.02-3.15-3.55-5.06-6.4-5.71-8.56l27.06-6.74c1.12 6.45 3.75 11.47 7.89 15.07 4.14 3.6 8.86 5.91 14.15 6.94 5.3 1.03 10.36.81 15.18-.65l32.55-9.86 8.01 26.46-83.19 25.19-7.25-23.98zM214.64 1543.4c2.25 10.37 2.22 19.57-.1 27.6-2.32 8.04-6.51 14.68-12.56 19.93-6.05 5.25-13.55 8.85-22.49 10.79-8.55 1.86-16.74 1.33-24.57-1.58-7.82-2.91-14.58-7.62-20.27-14.12-5.69-6.5-9.52-14.28-11.49-23.35-2.65-12.18-1.29-22.96 4.06-32.33 5.36-9.38 14.46-16.68 27.29-21.92l35.36 61.52-13.46 9.24-26.53-44.3 3.75 5.09c-3.14 1.77-5.69 4.26-7.64 7.46-1.95 3.21-2.35 7.46-1.19 12.78.87 4.02 2.58 7.35 5.12 9.98 2.54 2.64 5.71 4.39 9.49 5.26 3.79.88 8.01.8 12.68-.21 5.31-1.16 9.54-3.09 12.68-5.81 3.14-2.72 5.25-5.96 6.33-9.72 1.08-3.76 1.17-7.72.27-11.87-.65-2.98-1.79-5.75-3.44-8.31-1.64-2.56-3.6-5.02-5.88-7.37l17.59-16.45c3.58 3.97 6.72 8.41 9.41 13.32 2.72 4.92 4.58 9.7 5.59 14.37zM197.2 1438.34c1.26 10.54.34 19.69-2.74 27.47-3.08 7.78-7.88 13.99-14.4 18.64-6.52 4.65-14.33 7.52-23.41 8.6-8.69 1.04-16.79-.27-24.3-3.92-7.51-3.64-13.79-8.97-18.83-15.99-5.04-7.01-8.11-15.12-9.21-24.34-1.47-12.38.9-22.97 7.13-31.8 6.23-8.82 15.98-15.22 29.26-19.21l29.33 64.61-14.28 7.91-22.18-46.63 3.25 5.42c-3.3 1.46-6.07 3.7-8.32 6.7-2.25 3.01-3.05 7.21-2.41 12.61.49 4.08 1.87 7.56 4.15 10.42 2.28 2.87 5.26 4.92 8.95 6.14 3.69 1.23 7.9 1.56 12.64 1 5.4-.64 9.79-2.17 13.18-4.57 3.39-2.41 5.8-5.43 7.23-9.07 1.44-3.64 1.9-7.57 1.4-11.78a24.98 24.98 0 00-2.63-8.6c-1.39-2.71-3.11-5.34-5.15-7.9l19.08-14.69c3.18 4.3 5.88 9.01 8.1 14.16 2.21 5.14 3.6 10.08 4.16 14.82zM32.31 1381.34l-1.29-27.82 156.77-7.24 1.29 27.82-156.77 7.24zM189.86 1283.75c-.26 8.08-2.11 15.36-5.57 21.81-3.45 6.46-8.62 11.5-15.5 15.13-6.88 3.63-15.56 5.28-26.03 4.95-9.81-.31-18.23-2.57-25.26-6.77-7.03-4.2-12.4-9.61-16.1-16.23-3.7-6.62-5.44-13.57-5.21-20.86.27-8.61 1.91-15.09 4.89-19.45 2.99-4.35 6.25-7.93 9.79-10.73l3.34 1.3-12.64-2.99.82-25.84 86.88 2.75-.88 27.83-18.89-.6 6.03-2c-.01.27.73 1.09 2.21 2.46 1.48 1.38 3.21 3.39 5.18 6.03 1.98 2.65 3.66 5.89 5.07 9.71 1.42 3.84 2.04 8.33 1.87 13.5zm-22.41-8.67c.11-3.31-.3-6.31-1.21-8.99-.91-2.68-2.29-5.05-4.15-7.1-1.86-2.05-4.22-3.85-7.09-5.4l-21.27-.67c-2.95.97-5.48 2.48-7.61 4.54-2.12 2.06-3.79 4.53-5.01 7.4-1.22 2.88-1.88 6.11-2 9.69-.13 3.98.79 7.69 2.73 11.13 1.95 3.45 4.68 6.22 8.19 8.32 3.52 2.1 7.59 3.23 12.23 3.37 4.64.15 8.85-.78 12.63-2.78 3.78-2 6.79-4.73 9.02-8.17 2.23-3.45 3.41-7.23 3.54-11.34zM108.83 1164.9l15.67-.05-1.43.2c-4.97-3.76-8.75-8.63-11.34-14.61-2.59-5.98-3.33-12.97-2.23-20.99 1.12-8.14 4.45-14.61 10-19.4 5.55-4.79 12.14-6.73 19.77-5.81l64.43 8.86-3.79 27.59-54.19-7.45c-3.83-.39-7.02.21-9.58 1.79-2.56 1.59-4.15 4.62-4.76 9.08-.58 4.21.29 8.07 2.62 11.6 2.33 3.53 5.73 6.48 10.23 8.84 4.49 2.36 9.83 3.96 16 4.81l35.07 4.83-3.79 27.59-86.11-11.84 3.43-25.04zM218.17 1014.49c2.09 4.44 3.38 9.68 3.87 15.72.49 6.04.1 11.77-1.17 17.19-2.27 9.68-6.02 17.69-11.25 24.02-5.23 6.33-11.63 10.69-19.2 13.06-7.57 2.38-16.07 2.46-25.49.25-9.42-2.21-16.96-6.23-22.61-12.05-5.65-5.82-9.41-12.59-11.27-20.32-1.87-7.72-1.91-15.39-.12-23.01 1.79-7.62 4.37-13.99 7.75-19.12 3.38-5.13 7.22-9.3 11.52-12.52l14.34 17.26c-1.84 1.48-3.88 3.62-6.11 6.43-2.23 2.82-3.84 6.35-4.84 10.61-.88 3.75-.71 7.39.5 10.94s3.28 6.63 6.21 9.22c2.93 2.6 6.6 4.41 10.98 5.44 4.13.97 8.17.89 12.11-.22 3.94-1.12 7.31-3.15 10.11-6.11 2.81-2.95 4.75-6.75 5.84-11.4.7-2.97.92-5.81.67-8.53-.25-2.71-.94-5.15-2.06-7.33l20.22-9.53zM246.5 958.65c-3.35 10.07-8.06 17.96-14.16 23.69-6.09 5.73-13.08 9.31-20.97 10.74-7.88 1.44-16.16.71-24.85-2.18-8.31-2.76-15.08-7.38-20.33-13.88-5.25-6.49-8.66-13.99-10.24-22.48s-.91-17.14 2.02-25.95c3.93-11.83 10.59-20.41 19.98-25.74 9.39-5.33 20.94-6.98 34.65-4.94l-.94 70.95-16.29 1.08-.24-51.64.64 6.29c-3.61-.08-7.07.76-10.38 2.53-3.31 1.76-5.82 5.23-7.54 10.38-1.3 3.9-1.52 7.64-.68 11.2.84 3.56 2.67 6.69 5.48 9.37 2.81 2.68 6.48 4.77 11.01 6.28 5.16 1.72 9.78 2.2 13.87 1.47 4.09-.74 7.56-2.45 10.41-5.14 2.85-2.68 4.94-6.04 6.28-10.07.96-2.89 1.39-5.86 1.28-8.9-.11-3.04-.54-6.15-1.3-9.34l23.52-5.18c1.05 5.24 1.49 10.66 1.31 16.26-.18 5.6-1.03 10.67-2.53 15.2zM196.12 840.07l22.96 7.03-3.53-.86c-3.76-4.35-6.45-9.26-8.08-14.72-1.63-5.46-2.51-10.56-2.63-15.31-.13-4.74.25-8.15 1.14-10.22l25.04 12.25c-3.29 5.66-4.51 11.2-3.66 16.61.85 5.42 2.97 10.22 6.37 14.42 3.39 4.2 7.41 7.29 12.04 9.27l31.26 13.41-10.9 25.41-79.88-34.26 9.87-23.03z"/>
      </g>
    </g>
  </switch>
</svg>
