<svg xmlns="http://www.w3.org/2000/svg" viewBox="0 0 838.52 833.11">
  <switch>
    <g>
      <circle fill="none" cx="439.56" cy="420.29" r="325.25"/>
      <path stroke="#000" stroke-miterlimit="10" d="M357.09 55.51l28.24-5.35 1.16 6.12-21.85 4.14 2.88 15.21L386.67 72l1.15 6.06-19.16 3.63 3.83 20.21-6.39 1.21-9.01-47.6zM403.95 69.07l1.37 7.95-.44-1.04c.55-1.76 1.45-3.29 2.69-4.6 1.24-1.31 2.58-2.36 4.01-3.14 1.43-.79 2.7-1.23 3.81-1.34l.25 6.17c-2.1.07-3.9.64-5.39 1.73a10.378 10.378 0 00-3.38 4.09 9.787 9.787 0 00-.89 5.13l1.21 12.61-6.14.59-2.64-27.61 5.54-.54zM421.43 81.16c-.04-2.77.57-5.28 1.85-7.54 1.28-2.25 3.07-4.05 5.37-5.38 2.3-1.33 4.93-2.02 7.87-2.07 3.04-.05 5.7.56 8 1.81 2.3 1.26 4.09 2.99 5.38 5.21 1.29 2.21 1.95 4.7 2 7.47.04 2.77-.54 5.29-1.75 7.57-1.21 2.28-2.96 4.08-5.24 5.41-2.28 1.33-4.94 2.02-7.97 2.07-2.95.05-5.58-.52-7.9-1.71-2.32-1.19-4.16-2.88-5.51-5.07-1.35-2.19-2.05-4.78-2.1-7.77zm6.23-.03c.03 1.79.46 3.4 1.28 4.84.83 1.44 1.93 2.57 3.31 3.4 1.38.83 2.89 1.23 4.54 1.2 1.74-.03 3.29-.48 4.64-1.35 1.35-.87 2.39-2.04 3.13-3.5.74-1.46 1.09-3.09 1.06-4.88-.03-1.79-.44-3.4-1.22-4.84a8.978 8.978 0 00-3.24-3.43c-1.38-.85-2.94-1.26-4.68-1.23-1.7.03-3.22.5-4.57 1.41-1.35.92-2.4 2.11-3.16 3.57-.75 1.46-1.12 3.06-1.09 4.81zM467.56 68.31l-.14 6.79-.16-1.09c1.09-1.96 2.7-3.44 4.82-4.47 2.12-1.02 4.49-1.4 7.12-1.14 2.62.26 4.69 1.24 6.2 2.94 1.51 1.7 2.17 3.77 1.97 6.22l-2.04 20.4-6.27-.63 1.82-18.2c.11-1.52-.2-2.79-.93-3.83s-1.96-1.64-3.69-1.82c-1.6-.16-3.09.14-4.47.9s-2.51 1.88-3.4 3.36c-.89 1.48-1.44 3.25-1.64 5.29l-1.29 12.93-6.2-.62 2.76-27.6 5.54.57zM505.22 60.98l6.12 1.18-2.34 12.1 7.5 1.45-.93 4.8-7.5-1.45-4.3 22.3-6.12-1.18 4.3-22.3-5-.96.93-4.8 5 .96 2.34-12.1zM520.37 87.41l12.12 3.18-1.4 5.31-12.12-3.18 1.4-5.31zM554.69 64.37l29.55 10.88-2.15 5.85-23.45-8.63-5.09 13.83 20.93 7.7-2.15 5.85-20.94-7.71-5.18 14.08 24.33 8.96-2.15 5.85-30.43-11.2 16.73-45.46zM593.54 102.48l-2.61 6.27.25-1.08c1.73-1.42 3.77-2.22 6.12-2.4 2.35-.18 4.7.33 7.04 1.54 2.35 1.2 3.91 2.87 4.7 5 .79 2.14.64 4.31-.44 6.51l-9.34 18.25-5.61-2.87 8.34-16.28c.65-1.37.83-2.67.53-3.91-.3-1.23-1.22-2.24-2.77-3.04-1.43-.73-2.93-1-4.49-.79-1.56.21-3.02.83-4.39 1.89-1.37 1.06-2.52 2.5-3.46 4.33l-5.92 11.57-5.55-2.84 12.64-24.69 4.96 2.54zM616.56 148.15c-2.12-1.41-3.7-3.2-4.75-5.38-1.05-2.17-1.45-4.53-1.2-7.08.25-2.54 1.19-5.05 2.82-7.5 1.71-2.57 3.7-4.41 5.97-5.52 2.27-1.12 4.64-1.55 7.11-1.31 2.46.25 4.83 1.12 7.1 2.63 1.82 1.21 3.3 2.76 4.43 4.64s1.71 3.82 1.72 5.81l-1.45 1.69 16.89-25.37 5.13 3.42-28.74 43.17-5.19-3.45 3.82-5.74-.41 1.82c-2.02.7-4.19.93-6.5.7s-4.56-1.07-6.75-2.53zm4.55-3.33c1.38.92 2.77 1.48 4.18 1.7 1.41.22 2.77.11 4.07-.31 1.3-.42 2.51-1.15 3.62-2.18l2.9-4.35c.44-1.31.56-2.64.36-3.99-.21-1.34-.67-2.62-1.4-3.83-.73-1.21-1.74-2.24-3.04-3.11-1.41-.94-2.93-1.46-4.56-1.55-1.63-.09-3.19.22-4.69.94-1.5.72-2.77 1.86-3.81 3.42-1.02 1.52-1.57 3.13-1.67 4.8-.1 1.68.21 3.28.91 4.79.71 1.54 1.75 2.76 3.13 3.67zM675.49 195.66l36.88-31.4 8.56 10.05c3.1 3.64 5.18 7.22 6.24 10.74 1.06 3.52 1.34 6.85.84 9.98-.5 3.13-1.56 6.01-3.16 8.63-1.61 2.63-3.51 4.88-5.72 6.76-2.79 2.37-5.7 4.02-8.74 4.93-3.04.91-6.06 1.19-9.07.82-3.01-.37-5.87-1.29-8.57-2.78-2.7-1.48-5.09-3.45-7.18-5.9l-10.08-11.83zm8.96.91l5.04 5.92c1.74 2.04 3.64 3.66 5.72 4.86 2.07 1.2 4.23 1.94 6.47 2.23 2.24.29 4.51.08 6.8-.64s4.51-1.99 6.65-3.81c2.28-1.94 3.96-4.02 5.04-6.23 1.08-2.21 1.65-4.45 1.71-6.73a17.4 17.4 0 00-1.11-6.62c-.79-2.14-1.96-4.11-3.49-5.91l-5.43-6.38-27.4 23.31zM711.9 243.64c-1.74-2.66-2.69-5.28-2.87-7.89-.18-2.6.32-5.02 1.5-7.26s2.96-4.14 5.36-5.7c2.28-1.49 4.73-2.27 7.36-2.33 2.63-.06 5.14.51 7.53 1.72 2.39 1.21 4.37 3.01 5.94 5.41 2 3.06 2.77 6.19 2.29 9.39-.47 3.19-2.05 6.17-4.73 8.93l-19.23-14.72 2.28-3.25 15.99 11.96-1.46-.65c.94-1.25 1.53-2.71 1.76-4.35.23-1.65-.2-3.31-1.3-4.99-.93-1.42-2.11-2.47-3.53-3.13-1.43-.67-2.94-.93-4.56-.78-1.61.15-3.18.72-4.72 1.72-1.61 1.05-2.8 2.31-3.57 3.78a8.926 8.926 0 00-1.05 4.65c.08 1.63.61 3.19 1.58 4.69a9.545 9.545 0 002.49 2.58c1 .71 2.06 1.28 3.2 1.71l-2.29 4.94a19.57 19.57 0 01-4.46-2.65c-1.44-1.15-2.6-2.4-3.51-3.78zM727.47 270.58l18.18-26.86 3.41 6.53-14.71 19.46-1.65-3.45 23.86-1.64 3.22 6.18-32.15.07-.16-.29zM741.25 300.33c-1.18-2.94-1.6-5.71-1.27-8.3.33-2.59 1.3-4.86 2.89-6.83 1.59-1.96 3.72-3.48 6.37-4.54 2.53-1.01 5.09-1.29 7.68-.84 2.59.45 4.94 1.51 7.04 3.17 2.11 1.66 3.69 3.81 4.76 6.47 1.36 3.4 1.5 6.62.41 9.65s-3.22 5.65-6.39 7.83l-15.97-18.21 2.87-2.74 13.33 14.87-1.31-.92c1.17-1.05 2.03-2.35 2.58-3.92.55-1.57.45-3.29-.3-5.15-.63-1.58-1.58-2.83-2.85-3.77s-2.7-1.49-4.31-1.66c-1.61-.17-3.26.08-4.96.76-1.78.72-3.2 1.72-4.25 3a8.944 8.944 0 00-1.94 4.35c-.24 1.61-.03 3.25.63 4.91a9.548 9.548 0 001.93 3.02c.84.89 1.77 1.66 2.8 2.31l-3.22 4.4c-1.39-.94-2.67-2.09-3.85-3.47-1.15-1.4-2.05-2.86-2.67-4.39zM798.52 304.39l1.86 5.95-49.48 15.52-1.86-5.95 49.48-15.52zM767.11 329.82c2.7-.61 5.28-.53 7.76.26 2.47.79 4.59 2.17 6.37 4.15 1.78 1.98 2.99 4.4 3.65 7.28.67 2.96.63 5.7-.13 8.21-.76 2.51-2.09 4.62-3.99 6.34-1.9 1.71-4.2 2.88-6.9 3.49-2.7.61-5.29.56-7.77-.16-2.48-.72-4.6-2.06-6.38-4.01-1.77-1.96-3-4.41-3.67-7.38-.65-2.87-.64-5.57.05-8.09.69-2.52 1.96-4.66 3.83-6.44 1.87-1.77 4.26-2.99 7.18-3.65zm1.32 6.09c-1.74.4-3.23 1.15-4.47 2.25-1.24 1.11-2.12 2.42-2.64 3.93-.53 1.52-.6 3.08-.24 4.69.39 1.7 1.14 3.12 2.27 4.26a8.818 8.818 0 004.07 2.34c1.58.42 3.25.43 4.99.03 1.74-.4 3.24-1.13 4.48-2.19a8.971 8.971 0 002.69-3.88c.55-1.52.63-3.13.24-4.83-.38-1.66-1.15-3.05-2.33-4.18a9.583 9.583 0 00-4.14-2.36c-1.58-.42-3.23-.45-4.92-.06zM762.37 386.09c-.23-2.09.04-4.15.8-6.19s1.91-3.68 3.43-4.93l1.98.19-19.91 2.2-.68-6.13 41.22-4.56.59 5.33-6.96 1.65 1.86-.88c1.83 1.15 3.42 2.68 4.76 4.6 1.33 1.92 2.14 4.14 2.42 6.68.28 2.57-.08 4.96-1.09 7.17-1.02 2.2-2.57 4.03-4.65 5.47-2.09 1.44-4.62 2.33-7.59 2.66-2.97.33-5.62-.03-7.94-1.08a13.19 13.19 0 01-5.61-4.74c-1.45-2.12-2.32-4.6-2.63-7.44zm4.79-1.74c.2 1.78.79 3.36 1.77 4.76a9.6 9.6 0 003.79 3.19c1.54.73 3.22.99 5.04.79 1.86-.21 3.47-.81 4.82-1.81s2.37-2.25 3.06-3.74c.69-1.49.94-3.1.75-4.83-.18-1.6-.65-3.01-1.41-4.23a8.828 8.828 0 00-2.92-2.91c-1.18-.72-2.5-1.18-3.96-1.38l-4.6.51a8.31 8.31 0 00-3.62 2.02 8.836 8.836 0 00-2.25 3.45c-.47 1.31-.63 2.71-.47 4.18zM764.15 420.79c-.05-3.17.54-5.91 1.78-8.2s2.95-4.08 5.14-5.34c2.19-1.26 4.71-1.92 7.57-1.97 2.72-.04 5.21.61 7.47 1.96 2.25 1.35 4.07 3.17 5.45 5.47s2.09 4.88 2.14 7.74c.06 3.66-.96 6.72-3.07 9.16-2.1 2.45-5.03 4.12-8.76 5.03l-8.41-22.71 3.66-1.53 7.14 18.65-.89-1.33c1.46-.56 2.73-1.47 3.81-2.74 1.07-1.27 1.59-2.91 1.56-4.92-.03-1.7-.47-3.21-1.31-4.54a8.608 8.608 0 00-3.43-3.09c-1.44-.74-3.08-1.09-4.91-1.06-1.92.03-3.6.46-5.04 1.29-1.44.83-2.56 1.95-3.36 3.37-.8 1.42-1.19 3.02-1.16 4.81.02 1.21.26 2.37.73 3.51.46 1.13 1.06 2.18 1.79 3.15l-4.58 2.96c-.96-1.37-1.75-2.91-2.35-4.62-.62-1.72-.94-3.4-.97-5.05zM791.33 449.87l-8.06-.1 1.1-.24c1.63.86 2.97 2.02 4.03 3.48s1.85 2.96 2.36 4.51c.51 1.55.72 2.88.63 3.99l-6.11-.87c.32-2.08.08-3.95-.72-5.61-.8-1.66-1.93-3.02-3.41-4.06a9.83 9.83 0 00-4.89-1.81l-12.61-1.1.54-6.14 27.63 2.42-.49 5.53zM797.3 529.35l-9.31 27.19-5.9-2.02 7.21-21.04-14.64-5.01-6.32 18.45-5.83-2 6.32-18.44-19.46-6.67 2.11-6.15 45.82 15.69zM762.33 563.4l-7.58-2.75 1.12.13a11.52 11.52 0 012.66 4.61c.52 1.73.77 3.41.75 5.04-.02 1.63-.26 2.96-.72 3.97l-5.48-2.83c.98-1.86 1.37-3.71 1.17-5.54-.21-1.83-.83-3.49-1.88-4.96a9.716 9.716 0 00-4.02-3.31l-11.55-5.19 2.53-5.62 25.3 11.37-2.3 5.08zM743.27 572.67c2.42 1.35 4.28 3.15 5.58 5.39 1.3 2.24 1.95 4.69 1.95 7.35-.01 2.66-.73 5.27-2.17 7.85-1.48 2.65-3.35 4.65-5.59 6-2.24 1.35-4.65 2.03-7.21 2.03-2.56 0-5.05-.68-7.46-2.03-2.42-1.35-4.3-3.13-5.66-5.32-1.36-2.19-2.04-4.61-2.04-7.25 0-2.64.73-5.29 2.22-7.93 1.44-2.57 3.26-4.56 5.46-5.97 2.2-1.41 4.58-2.14 7.15-2.21 2.57-.07 5.16.63 7.77 2.09zm-3.1 5.41c-1.56-.87-3.17-1.31-4.83-1.32-1.66-.01-3.19.37-4.6 1.15-1.41.77-2.51 1.88-3.32 3.32-.85 1.52-1.24 3.08-1.17 4.68.07 1.6.56 3.09 1.45 4.46.89 1.37 2.12 2.49 3.68 3.37 1.56.87 3.16 1.33 4.79 1.38 1.64.05 3.17-.31 4.59-1.07 1.43-.76 2.56-1.9 3.42-3.42.83-1.48 1.19-3.04 1.07-4.66a9.419 9.419 0 00-1.5-4.52c-.86-1.4-2.06-2.52-3.58-3.37zM731.4 619.05l-5.82-3.5 1.03.4c1.15 1.92 1.65 4.06 1.48 6.41-.17 2.35-1.02 4.6-2.55 6.74-1.53 2.14-3.41 3.45-5.64 3.92s-4.35.01-6.38-1.38l-16.69-11.91 3.66-5.13 14.89 10.63c1.26.84 2.52 1.21 3.79 1.1 1.26-.12 2.4-.88 3.41-2.3.93-1.31 1.41-2.75 1.44-4.32.03-1.57-.38-3.11-1.23-4.62-.84-1.51-2.1-2.86-3.77-4.05l-10.58-7.55 3.62-5.07 22.57 16.12-3.23 4.51zM719.06 655.35l-4.06 4.72-9.35-8.04-4.98 5.79-3.71-3.19 4.98-5.79-17.22-14.81 4.06-4.72L706 644.12l3.32-3.86 3.71 3.19-3.32 3.86 9.35 8.04zM688.6 655.37l-8.78 8.94-3.92-3.85 8.78-8.94 3.92 3.85zM691.61 696.57l-24.08 20.29-4.02-4.76 19.11-16.1-9.5-11.27-17.06 14.38-4.02-4.76 17.06-14.38-9.67-11.48-19.83 16.71-4.02-4.76 24.8-20.9 31.23 37.03zM639.29 711.47l-4.16-5.36.81.75c.38 2.21.07 4.38-.94 6.51s-2.61 3.92-4.81 5.36c-2.2 1.45-4.43 1.98-6.67 1.61-2.25-.37-4.06-1.57-5.45-3.6l-11.25-17.14 5.27-3.46 10.04 15.29c.87 1.24 1.91 2.04 3.13 2.39 1.22.35 2.55.05 4.01-.91 1.34-.88 2.31-2.05 2.91-3.51.59-1.46.77-3.04.53-4.75s-.93-3.43-2.05-5.14l-7.13-10.87 5.21-3.42 15.22 23.19-4.67 3.06zM588.22 708.91c2.27-1.15 4.61-1.64 7.02-1.47 2.41.16 4.66.98 6.75 2.45 2.09 1.47 3.8 3.52 5.13 6.16 1.39 2.75 2 5.39 1.85 7.92-.15 2.53-.94 4.8-2.38 6.82-1.43 2.02-3.36 3.65-5.8 4.87-1.95.98-4.03 1.5-6.23 1.56-2.2.06-4.17-.4-5.91-1.38l-.76-2.1 13.71 27.23-5.51 2.77-23.33-46.31 5.56-2.8 3.1 6.16-1.38-1.25c.39-2.1 1.26-4.1 2.6-6 1.38-1.9 3.23-3.44 5.58-4.63zm.65 5.61c-1.48.74-2.66 1.68-3.54 2.8-.89 1.12-1.47 2.35-1.74 3.69-.27 1.34-.24 2.75.1 4.22l2.35 4.67a8.22 8.22 0 003.29 2.28c1.27.49 2.61.71 4.02.68s2.81-.4 4.21-1.11c1.52-.76 2.72-1.83 3.6-3.2s1.39-2.89 1.5-4.54c.11-1.66-.25-3.33-1.09-5-.82-1.64-1.94-2.91-3.35-3.83a9.82 9.82 0 00-4.62-1.58c-1.68-.13-3.26.17-4.73.92zM517.8 736.6l8.92 47.61-12.97 2.43c-4.7.88-8.84.91-12.43.08-3.59-.83-6.61-2.24-9.08-4.23-2.46-1.99-4.44-4.34-5.92-7.04-1.48-2.7-2.49-5.47-3.03-8.33-.67-3.6-.65-6.94.06-10.03.72-3.09 1.98-5.85 3.8-8.28 1.82-2.43 4.04-4.45 6.67-6.06 2.63-1.61 5.53-2.71 8.69-3.3l15.29-2.85zm-5.24 7.32l-7.64 1.43c-2.63.49-4.99 1.34-7.05 2.55-2.07 1.21-3.79 2.71-5.15 4.51-1.37 1.8-2.31 3.88-2.82 6.22-.51 2.35-.51 4.9.01 7.67.55 2.94 1.52 5.43 2.9 7.47s3.05 3.64 4.99 4.82c1.95 1.18 4.05 1.96 6.3 2.33 2.25.37 4.54.34 6.87-.09l8.23-1.54-6.64-35.37zM458.08 744.35c3.17-.19 5.92.29 8.27 1.42 2.35 1.14 4.2 2.77 5.56 4.91 1.36 2.13 2.12 4.63 2.29 7.48.16 2.72-.38 5.24-1.64 7.55-1.25 2.31-3 4.2-5.24 5.68-2.24 1.47-4.79 2.29-7.64 2.46-3.66.21-6.75-.68-9.29-2.67-2.53-2-4.33-4.85-5.4-8.54l22.33-9.37 1.69 3.59-18.33 7.93 1.29-.95c.62 1.44 1.59 2.67 2.9 3.69 1.31 1.02 2.97 1.47 4.98 1.35 1.69-.1 3.19-.6 4.48-1.5 1.29-.9 2.27-2.09 2.94-3.56.67-1.47.96-3.12.85-4.95-.11-1.92-.61-3.58-1.5-4.98-.89-1.4-2.06-2.47-3.51-3.22s-3.07-1.06-4.85-.96c-1.2.07-2.36.36-3.47.88-1.11.51-2.14 1.15-3.07 1.93l-3.15-4.45c1.33-1.02 2.83-1.87 4.51-2.55 1.68-.69 3.35-1.08 5-1.17zM426.95 744.49l14.32 29.1-7.36-.28-9.61-22.42 3.81.28-10.4 21.53-6.96-.26 15.88-27.96.32.01zM394.25 741.73c3.14.43 5.75 1.43 7.84 3 2.08 1.57 3.58 3.53 4.5 5.89.92 2.36 1.18 4.95.79 7.78-.37 2.7-1.39 5.06-3.07 7.09-1.67 2.02-3.75 3.54-6.24 4.56-2.48 1.01-5.14 1.32-7.97.94-3.63-.5-6.49-1.97-8.59-4.42-2.1-2.45-3.31-5.59-3.65-9.43l23.73-4.87.96 3.85-19.51 4.23 1.45-.68c.33 1.53 1.04 2.93 2.13 4.18 1.09 1.25 2.63 2.02 4.62 2.29 1.68.23 3.24.03 4.68-.61 1.44-.64 2.63-1.61 3.58-2.93.95-1.31 1.54-2.88 1.79-4.69.26-1.9.09-3.63-.51-5.18-.6-1.55-1.54-2.83-2.82-3.83-1.28-1.01-2.81-1.64-4.58-1.88-1.19-.16-2.39-.1-3.58.19-1.19.29-2.32.72-3.39 1.29l-2.23-4.97c1.5-.74 3.14-1.28 4.92-1.63 1.8-.33 3.51-.39 5.15-.17zM362.39 789.49l-6.09-1.32 10.98-50.68 6.09 1.32-10.98 50.68zM355.85 749.63c-.8 2.65-2.15 4.85-4.06 6.61-1.91 1.76-4.16 2.92-6.76 3.49-2.6.57-5.31.43-8.13-.43-2.91-.88-5.26-2.27-7.07-4.17-1.81-1.9-2.98-4.1-3.54-6.6-.55-2.5-.43-5.08.37-7.73.8-2.65 2.13-4.88 3.98-6.67 1.85-1.8 4.06-2.98 6.64-3.56 2.58-.57 5.32-.42 8.23.46 2.82.85 5.16 2.2 7 4.04 1.85 1.84 3.08 4.01 3.7 6.51.63 2.5.51 5.18-.36 8.05zm-5.94-1.87c.52-1.71.6-3.38.25-5s-1.05-3.04-2.11-4.24c-1.06-1.21-2.38-2.05-3.96-2.53-1.67-.5-3.28-.55-4.83-.13-1.55.42-2.9 1.21-4.04 2.38-1.15 1.17-1.98 2.61-2.5 4.32-.52 1.71-.62 3.37-.31 4.98.31 1.61.99 3.03 2.04 4.25 1.05 1.23 2.41 2.09 4.08 2.6 1.63.49 3.22.51 4.78.04a9.524 9.524 0 004.1-2.44c1.16-1.15 1.99-2.56 2.5-4.23zM309.28 717.67c1.93.83 3.59 2.08 4.98 3.76 1.4 1.67 2.26 3.48 2.59 5.42l-1.14 1.63 7.94-18.39 5.66 2.44-16.44 38.08-4.92-2.12 2.01-6.87-.15 2.05c-1.9 1.03-4.02 1.65-6.35 1.86-2.33.21-4.66-.19-7-1.2-2.38-1.03-4.27-2.53-5.68-4.5-1.41-1.97-2.23-4.22-2.45-6.75-.22-2.53.26-5.17 1.45-7.91 1.19-2.75 2.81-4.87 4.86-6.37 2.06-1.5 4.36-2.34 6.9-2.53 2.53-.2 5.11.27 7.74 1.4zm-.86 5.03c-1.64-.71-3.31-.98-5.01-.81-1.7.17-3.25.74-4.65 1.72-1.4.98-2.46 2.31-3.18 3.99-.74 1.72-1.01 3.42-.81 5.09.2 1.67.78 3.17 1.74 4.51s2.23 2.35 3.83 3.04c1.48.64 2.93.93 4.37.87 1.44-.06 2.76-.43 3.98-1.09 1.21-.67 2.27-1.59 3.16-2.76l1.83-4.24c.36-1.4.37-2.78.04-4.14a8.788 8.788 0 00-1.89-3.66c-.92-1.11-2.06-1.94-3.41-2.52zM278.14 701.95c2.75 1.57 4.81 3.48 6.15 5.71 1.35 2.23 2.01 4.62 1.98 7.15-.03 2.53-.75 5.04-2.17 7.52-1.35 2.37-3.18 4.18-5.49 5.43s-4.8 1.89-7.49 1.9c-2.68.01-5.26-.69-7.75-2.11-3.18-1.82-5.29-4.25-6.32-7.31-1.03-3.06-.99-6.43.14-10.11l23.83 4.34-.55 3.93-19.68-3.36 1.6-.09c-.27 1.55-.13 3.1.42 4.67.54 1.57 1.69 2.85 3.43 3.85 1.47.84 3 1.23 4.57 1.18 1.57-.05 3.04-.51 4.41-1.38 1.37-.87 2.51-2.09 3.41-3.68.95-1.67 1.44-3.33 1.46-4.99.02-1.66-.37-3.2-1.19-4.61-.81-1.42-1.99-2.57-3.55-3.45-1.05-.6-2.18-.99-3.39-1.16-1.21-.18-2.42-.2-3.63-.06l-.21-5.44c1.67-.13 3.39-.02 5.17.33 1.81.34 3.42.92 4.85 1.74zM239.53 711.17l4.1-6.95-.34 1.07c-1.56.99-3.23 1.58-5.03 1.77-1.79.19-3.49.13-5.09-.19-1.6-.32-2.86-.8-3.77-1.44l3.79-4.87c1.65 1.31 3.39 2.03 5.23 2.17 1.84.13 3.58-.18 5.22-.94a9.718 9.718 0 004-3.34l7.23-10.4 5.06 3.52-15.84 22.77-4.56-3.17zM167.64 676.93l-19.01-21.56 4.67-4.12 14.71 16.68 11.61-10.24-12.9-14.62 4.62-4.08 12.9 14.62 15.43-13.6 4.3 4.87-36.33 32.05zM155.37 629.71l6.13-5.23-.67.9c-1.79.43-3.57.44-5.33.04-1.76-.4-3.34-1.01-4.75-1.84-1.41-.83-2.44-1.69-3.1-2.59l5.17-3.37c1.13 1.77 2.54 3.02 4.24 3.75 1.69.73 3.44 1 5.24.81 1.8-.18 3.43-.8 4.87-1.86l10.22-7.47 3.64 4.98-22.39 16.37-3.27-4.49zM156.73 608.56c-2.37 1.43-4.85 2.16-7.45 2.19-2.59.03-5.04-.62-7.35-1.94-2.31-1.32-4.23-3.24-5.75-5.76-1.57-2.6-2.39-5.21-2.46-7.83-.07-2.62.53-5.04 1.79-7.27 1.27-2.22 3.08-4.05 5.45-5.49 2.37-1.43 4.85-2.2 7.42-2.29 2.58-.1 5.02.51 7.31 1.8 2.3 1.3 4.23 3.25 5.8 5.85 1.52 2.52 2.35 5.09 2.49 7.69.14 2.6-.4 5.04-1.61 7.31-1.19 2.29-3.08 4.2-5.64 5.74zm-3.16-5.37c1.53-.92 2.71-2.11 3.53-3.54.83-1.44 1.25-2.96 1.27-4.57.02-1.6-.39-3.11-1.25-4.53-.9-1.49-2.07-2.6-3.5-3.33-1.43-.73-2.96-1.04-4.6-.94-1.63.1-3.22.61-4.75 1.54-1.53.92-2.72 2.09-3.57 3.49-.85 1.4-1.3 2.91-1.34 4.53-.04 1.62.39 3.17 1.29 4.66.88 1.45 2.05 2.53 3.52 3.24 1.47.71 3.03 1.02 4.67.93 1.67-.08 3.24-.57 4.73-1.48zM122.27 575.33l5.92-3.33-.86.69c-2.24.05-4.34-.57-6.3-1.88s-3.49-3.16-4.6-5.55c-1.11-2.39-1.31-4.67-.62-6.84s2.15-3.79 4.36-4.86l18.6-8.62 2.65 5.72-16.6 7.69c-1.36.68-2.3 1.59-2.82 2.75-.52 1.15-.42 2.52.31 4.1.68 1.46 1.69 2.59 3.05 3.39 1.36.8 2.9 1.21 4.63 1.22 1.73.01 3.53-.41 5.39-1.28l11.79-5.46 2.62 5.65-25.17 11.66-2.35-5.05zM96.82 546.65l-2.09-5.87 11.61-4.14-2.57-7.19 4.61-1.64 2.57 7.19 21.39-7.63 2.09 5.87-21.39 7.63 1.71 4.8-4.61 1.64-1.71-4.8-11.61 4.14zM111.88 520.14l-3.41-12.05 5.29-1.5 3.41 12.06-5.29 1.49zM74.6 502.31l-5.65-30.98 6.13-1.12 4.48 24.59 14.5-2.64-4-21.95 6.13-1.12 4 21.95 14.76-2.69-4.65-25.51 6.13-1.12 5.81 31.9-47.64 8.69zM87.68 449.47l6.72-.94-1.05.33c-2.1-.77-3.83-2.12-5.18-4.05-1.35-1.93-2.1-4.21-2.26-6.84-.16-2.63.48-4.83 1.92-6.59s3.38-2.74 5.83-2.94l20.46-1.24.38 6.29-18.26 1.11c-1.51.14-2.72.65-3.63 1.53-.91.88-1.31 2.19-1.2 3.93.1 1.6.63 3.03 1.6 4.27.97 1.24 2.26 2.18 3.86 2.82 1.61.64 3.43.9 5.48.77l12.97-.79.38 6.22-27.69 1.68-.33-5.56zM115.25 406.4c-.13 2.54-.86 4.82-2.2 6.83-1.33 2.01-3.16 3.56-5.47 4.65-2.31 1.09-4.94 1.56-7.89 1.4-3.08-.16-5.68-.93-7.8-2.32-2.12-1.38-3.7-3.2-4.75-5.45-1.05-2.25-1.5-4.73-1.36-7.45.11-2.19.69-4.25 1.73-6.18 1.04-1.94 2.41-3.42 4.12-4.45l2.19.38-30.44-1.58.32-6.16 51.79 2.68-.32 6.22-6.89-.36 1.77-.58c1.63 1.38 2.94 3.13 3.92 5.23 1 2.14 1.42 4.51 1.28 7.14zm-5.18-2.21c.09-1.65-.14-3.14-.67-4.46-.54-1.32-1.32-2.44-2.34-3.34-1.03-.9-2.27-1.57-3.72-2l-5.22-.27c-1.36.29-2.56.86-3.61 1.73-1.05.86-1.91 1.91-2.58 3.15-.67 1.24-1.04 2.64-1.12 4.2-.09 1.7.25 3.27 1 4.71.75 1.45 1.82 2.63 3.2 3.55 1.38.92 3.01 1.43 4.89 1.53 1.83.09 3.49-.24 4.98-1.02a9.902 9.902 0 003.66-3.23c.93-1.38 1.44-2.9 1.53-4.55zM126.04 331.49l-45.8-15.79 4.3-12.48c1.56-4.52 3.58-8.13 6.08-10.84 2.49-2.71 5.21-4.64 8.16-5.8 2.95-1.16 5.96-1.71 9.04-1.67 3.08.05 5.99.54 8.74 1.49 3.46 1.19 6.36 2.87 8.69 5.02 2.33 2.15 4.1 4.62 5.32 7.4 1.21 2.78 1.87 5.71 1.96 8.79.1 3.08-.38 6.14-1.43 9.18l-5.06 14.7zm-3.77-8.17l2.53-7.35c.87-2.53 1.3-5 1.27-7.39-.03-2.39-.48-4.63-1.37-6.71-.89-2.08-2.23-3.92-4.01-5.53-1.78-1.61-4.01-2.87-6.67-3.79-2.83-.98-5.47-1.37-7.92-1.17-2.45.19-4.67.85-6.66 1.96-1.99 1.11-3.7 2.55-5.14 4.32-1.44 1.77-2.54 3.78-3.31 6.02l-2.73 7.92 34.01 11.72zM148.84 275.78c-1.41 2.84-3.19 5-5.34 6.48-2.15 1.48-4.49 2.28-7.02 2.4-2.53.12-5.07-.45-7.63-1.72-2.44-1.21-4.36-2.93-5.75-5.16-1.39-2.23-2.17-4.69-2.34-7.36-.17-2.68.38-5.29 1.64-7.86 1.62-3.28 3.93-5.53 6.92-6.74 2.99-1.21 6.36-1.37 10.1-.46l-2.92 24.04-3.96-.31 2.19-19.85.19 1.59c-1.56-.17-3.11.06-4.64.69-1.54.64-2.75 1.85-3.64 3.66-.75 1.52-1.06 3.07-.91 4.63.15 1.57.69 3.01 1.64 4.32.94 1.32 2.24 2.38 3.88 3.19 1.72.85 3.41 1.24 5.07 1.16 1.66-.08 3.17-.56 4.53-1.46 1.37-.89 2.44-2.14 3.23-3.74.53-1.08.85-2.23.96-3.45.1-1.22.05-2.43-.15-3.62l5.42-.53c.23 1.66.22 3.39-.02 5.18-.23 1.79-.71 3.43-1.45 4.92zM164.14 248.71l-32.37-2.03 3.9-6.25 24.23 2.8-2.13 3.17-13.52-19.72 3.69-5.91 16.38 27.67-.18.27zM182.79 221.71c-1.94 2.51-4.1 4.28-6.5 5.31-2.4 1.03-4.85 1.35-7.35.98-2.5-.38-4.88-1.44-7.15-3.18-2.16-1.66-3.7-3.72-4.62-6.18a15.62 15.62 0 01-.85-7.68c.36-2.66 1.41-5.12 3.15-7.38 2.23-2.9 4.94-4.65 8.11-5.26s6.5-.09 9.99 1.52L170 222.85l-3.82-1.08 6.03-19.03-.13 1.59c-1.5-.47-3.06-.55-4.69-.23-1.63.32-3.06 1.28-4.29 2.87-1.04 1.35-1.63 2.8-1.8 4.37-.16 1.57.09 3.09.76 4.56.67 1.47 1.73 2.77 3.18 3.89 1.52 1.17 3.1 1.88 4.74 2.13 1.64.25 3.22.07 4.73-.54 1.51-.61 2.81-1.62 3.91-3.04a9.67 9.67 0 001.62-3.2c.34-1.17.53-2.37.56-3.58l5.42.54c-.1 1.67-.45 3.36-1.04 5.08-.58 1.7-1.38 3.22-2.39 4.53zM157.18 170.32l4.17-4.63 38.54 34.7-4.17 4.63-38.54-34.7zM195.03 184.45c-1.91-2.01-3.15-4.28-3.73-6.81-.58-2.53-.47-5.06.32-7.6s2.26-4.82 4.4-6.85c2.2-2.09 4.58-3.45 7.12-4.08 2.54-.63 5.04-.56 7.48.2 2.44.76 4.62 2.15 6.52 4.16 1.91 2.01 3.18 4.26 3.82 6.76.64 2.5.58 5.01-.2 7.53-.78 2.52-2.27 4.83-4.47 6.92-2.14 2.03-4.47 3.39-6.98 4.08-2.51.69-5.01.69-7.49-.01-2.46-.7-4.73-2.13-6.79-4.3zm4.57-4.24c1.23 1.3 2.64 2.2 4.22 2.7 1.58.5 3.16.59 4.73.27 1.57-.32 2.96-1.05 4.16-2.19 1.26-1.2 2.1-2.57 2.5-4.13.41-1.55.38-3.12-.06-4.69-.45-1.58-1.29-3.01-2.52-4.31-1.23-1.3-2.62-2.21-4.17-2.74a9.104 9.104 0 00-4.71-.34c-1.59.31-3.01 1.06-4.28 2.26-1.23 1.17-2.03 2.54-2.41 4.13-.37 1.59-.35 3.17.09 4.77.43 1.58 1.25 3 2.45 4.27zM245.86 159.81c-1.68 1.26-3.59 2.09-5.73 2.47s-4.14.24-5.99-.43l-.85-1.79 12.06 16-4.92 3.71-24.97-33.11 4.28-3.23 4.97 5.15-1.7-1.15c.05-2.16.56-4.31 1.52-6.44.97-2.13 2.47-3.96 4.5-5.49 2.07-1.56 4.31-2.47 6.72-2.72s4.77.15 7.08 1.21c2.31 1.06 4.36 2.78 6.16 5.17 1.8 2.39 2.84 4.85 3.13 7.38.28 2.53-.12 4.94-1.21 7.25-1.08 2.28-2.77 4.3-5.05 6.02zm-3.95-3.23c1.43-1.08 2.49-2.39 3.19-3.95.7-1.56.97-3.19.81-4.89-.16-1.7-.79-3.28-1.9-4.74-1.13-1.5-2.47-2.57-4.02-3.22a9.604 9.604 0 00-4.78-.72c-1.63.17-3.15.78-4.54 1.83-1.28.97-2.25 2.09-2.91 3.37-.66 1.28-1 2.61-1.02 4-.02 1.39.26 2.76.83 4.11l2.78 3.69a8.289 8.289 0 003.58 2.08c1.35.38 2.72.44 4.11.17 1.41-.27 2.69-.85 3.87-1.73zM274.91 140.5c-2.73 1.62-5.4 2.46-8 2.53-2.61.07-5.01-.54-7.19-1.81-2.19-1.27-4.01-3.14-5.46-5.6-1.39-2.34-2.06-4.83-2.01-7.46.05-2.63.73-5.11 2.05-7.45 1.31-2.34 3.2-4.24 5.66-5.69 3.15-1.87 6.31-2.5 9.48-1.88 3.17.61 6.07 2.32 8.72 5.11l-15.55 18.57-3.15-2.42 12.65-15.45-.71 1.43c-1.21-.99-2.64-1.64-4.27-1.95-1.63-.3-3.32.06-5.04 1.08-1.46.87-2.55 2-3.29 3.39-.73 1.4-1.06 2.9-.98 4.52.08 1.62.58 3.21 1.52 4.79.98 1.65 2.19 2.9 3.62 3.73 1.43.84 2.96 1.25 4.6 1.25 1.63-.01 3.22-.47 4.75-1.38a9.632 9.632 0 002.68-2.37c.75-.96 1.37-2.01 1.85-3.12l4.84 2.51c-.71 1.51-1.66 2.96-2.84 4.34-1.2 1.38-2.51 2.49-3.93 3.33zM285.96 102.38l4.01 6.99-.76-.82c-.09-1.84.23-3.59.95-5.24.72-1.65 1.61-3.1 2.68-4.33s2.11-2.09 3.12-2.57l2.36 5.71c-1.95.79-3.44 1.94-4.47 3.47-1.03 1.53-1.61 3.2-1.77 5-.15 1.81.16 3.51.93 5.13l5.46 11.42-5.56 2.66-11.97-25.02 5.02-2.4z"/>
      <g stroke="#000" stroke-miterlimit="10">
        <path d="M483.93 214.55l81.59 36.51-124.61 170.16zM249.07 326.95l55.05-70.42L439.33 418.4z"/>
        <path d="M489.71 623.27l-89.39 1.16 41.58-206.77zM263.93 541.53l-33.49-82.88 207.77-36.25z"/>
        <path d="M650.35 419.09l-18.8 87.39-192.3-86.64z"/>
      </g>
    </g>
  </switch>
</svg>
